<svg width="214" height="75" viewBox="0 0 214 75" fill="none" xmlns="http://www.w3.org/2000/svg">
    <path d="M88.9889 37.7016C88.9889 58.0233 72.515 74.4972 52.1933 74.4972C31.8717 74.4972 15.3978 58.0233 15.3978 37.7016C15.3978 17.38 31.8717 0.906067 52.1933 0.906067C72.515 0.906067 88.9889 17.38 88.9889 37.7016Z" fill="url(#paint0_linear_14_2)" />
    <path d="M21.6297 45.5595C21.6297 48.6887 20.5573 51.1148 18.4125 52.8377C16.2678 54.5253 13.5077 55.3692 10.1323 55.3692C6.40533 55.3692 3.24091 54.6132 0.639056 53.1014V48.5129C3.20575 50.4468 6.33501 51.4137 10.0268 51.4137C12.2419 51.4137 13.9824 50.9214 15.2481 49.9369C16.5139 48.9524 17.1468 47.5285 17.1468 45.665C17.1468 44.8914 16.9886 44.2058 16.6721 43.6081C16.3908 42.9752 15.8986 42.4126 15.1954 41.9204C14.5273 41.393 13.8769 40.9711 13.244 40.6546C12.6463 40.303 11.82 39.8811 10.7652 39.3889C10.5542 39.2834 10.2378 39.1427 9.81588 38.9669C8.30398 38.2989 7.1437 37.7539 6.33501 37.332C5.56149 36.9101 4.62974 36.2948 3.53977 35.4861C2.48497 34.6422 1.71144 33.6753 1.2192 32.5854C0.726957 31.4954 0.480835 30.2296 0.480835 28.7881C0.480835 25.7643 1.55322 23.4085 3.698 21.7209C5.87793 19.998 8.60285 19.1366 11.8727 19.1366C14.9317 19.1366 17.5335 19.6816 19.6783 20.7715V25.2545C17.5335 23.848 14.9668 23.1448 11.9782 23.1448C9.83345 23.1448 8.12818 23.6547 6.86242 24.6743C5.59665 25.6588 4.96376 26.9597 4.96376 28.5771C4.96376 29.4209 5.12198 30.1769 5.43843 30.8449C5.79003 31.513 6.38775 32.1459 7.2316 32.7436C8.07544 33.3061 8.79623 33.7456 9.39395 34.0621C9.99168 34.3434 10.9234 34.7653 12.1892 35.3279C13.3846 35.8553 14.2988 36.2772 14.9317 36.5936C15.5646 36.8749 16.3733 37.3496 17.3577 38.0176C18.3774 38.6505 19.1333 39.2834 19.6256 39.9163C20.153 40.514 20.6101 41.3227 20.9968 42.3423C21.4187 43.3268 21.6297 44.3992 21.6297 45.5595Z" fill="#1A1921" />
    <path d="M40.1107 54.3144C38.7394 57.9359 37.1045 60.485 35.2058 61.9617C33.3423 63.4385 31.1975 64.1768 28.7715 64.1768C27.8573 64.1768 27.119 64.0889 26.5564 63.9131V60.1686C27.0838 60.3092 27.6815 60.3795 28.3496 60.3795C31.9008 60.3795 34.4147 58.3578 35.8914 54.3144L25.0797 28.2607H29.7736L33.2544 37.0683L37.9483 49.1986C38.2296 48.2844 39.636 44.241 42.1675 37.0683L45.2792 28.2607H49.7621L40.1107 54.3144Z" fill="#1A1921" />
    <path d="M75.6136 55H71.4471V37.7012C71.4471 35.7322 70.9373 34.2379 69.9176 33.2182C68.9331 32.1634 67.6322 31.636 66.0148 31.636C64.0107 31.636 62.2703 32.4096 60.7935 33.9566C59.352 35.5037 58.6312 37.6484 58.6312 40.3909V55H54.5174V28.2607H58.6312V32.9018C60.2134 29.5616 63.0262 27.8915 67.0696 27.8915C69.6715 27.8915 71.7459 28.6826 73.293 30.2648C74.84 31.847 75.6136 33.9566 75.6136 36.5936V55Z" fill="#1A1921" />
    <path d="M101.406 54.0507C99.7179 55.0703 97.6435 55.5801 95.1823 55.5801C90.9631 55.5801 87.6053 54.2441 85.1089 51.5719C82.6477 48.8645 81.4171 45.5771 81.4171 41.7094C81.4171 37.9121 82.6477 34.6422 85.1089 31.8997C87.6053 29.1572 90.9982 27.786 95.2878 27.786C97.5732 27.786 99.6125 28.2782 101.406 29.2627V33.2182C99.7883 32.1283 97.8896 31.5833 95.7097 31.5833C92.6859 31.5833 90.2599 32.5678 88.4315 34.5368C86.6383 36.4706 85.7418 38.879 85.7418 41.7622C85.7769 44.6453 86.6559 47.0538 88.3788 48.9876C90.1016 50.8863 92.5453 51.8356 95.7097 51.8356C97.749 51.8356 99.6476 51.2554 101.406 50.0952V54.0507Z" fill="#1A1921" />
    <path d="M143.582 55H139.416V37.7012C139.416 33.6577 137.71 31.636 134.3 31.636C132.612 31.636 131.1 32.4096 129.764 33.9566C128.428 35.4685 127.76 37.6133 127.76 40.3909V55H123.594V37.7012C123.594 33.6577 121.888 31.636 118.478 31.636C116.79 31.636 115.278 32.4096 113.942 33.9566C112.606 35.4685 111.938 37.6133 111.938 40.3909V55H107.824V28.2607H111.938V32.5854C113.415 29.4561 115.929 27.8915 119.48 27.8915C123.594 27.8915 126.196 29.6319 127.285 33.1128C128.059 31.4251 129.131 30.1417 130.503 29.2627C131.909 28.3486 133.474 27.8915 135.197 27.8915C137.974 27.8915 140.066 28.6826 141.473 30.2648C142.879 31.847 143.582 33.9742 143.582 36.6464V55Z" fill="#1A1921" />
    <path d="M155.362 55H151.196V28.2607H155.362V55ZM155.204 17.9235C155.731 18.451 155.995 19.1014 155.995 19.8749C155.995 20.6485 155.731 21.2989 155.204 21.8263C154.677 22.3186 154.026 22.5647 153.253 22.5647C152.479 22.5647 151.829 22.3186 151.301 21.8263C150.809 21.2989 150.563 20.6485 150.563 19.8749C150.563 19.1014 150.809 18.451 151.301 17.9235C151.829 17.3961 152.479 17.1324 153.253 17.1324C154.026 17.1324 154.677 17.3961 155.204 17.9235Z" fill="#1A1921" />
    <path d="M184.391 55H180.224V37.7012C180.224 35.7322 179.714 34.2379 178.695 33.2182C177.71 32.1634 176.409 31.636 174.792 31.636C172.788 31.636 171.047 32.4096 169.57 33.9566C168.129 35.5037 167.408 37.6484 167.408 40.3909V55H163.294V28.2607H167.408V32.9018C168.99 29.5616 171.803 27.8915 175.847 27.8915C178.448 27.8915 180.523 28.6826 182.07 30.2648C183.617 31.847 184.391 33.9566 184.391 36.5936V55Z" fill="#1A1921" />
    <path d="M194.519 41.9204C194.519 44.8035 195.222 47.1417 196.628 48.9349C198.035 50.728 199.81 51.6246 201.955 51.6246C204.135 51.6246 205.981 50.8159 207.493 49.1986C209.04 47.5812 209.813 44.9969 209.813 41.4457C209.813 38.0704 209.022 35.5916 207.44 34.0093C205.858 32.4271 204.117 31.636 202.219 31.636C200.004 31.636 198.158 32.5326 196.681 34.3258C195.239 36.0838 194.519 38.6153 194.519 41.9204ZM213.98 55H209.813V51.0445C207.915 53.9628 205.172 55.4219 201.586 55.4219C198.035 55.4219 195.239 54.1034 193.2 51.4664C191.196 48.8294 190.194 45.6298 190.194 41.8677C190.194 37.6836 191.266 34.3082 193.411 31.7415C195.556 29.1397 198.316 27.8387 201.691 27.8387C205.172 27.8387 207.88 29.333 209.813 32.3217V17.7126H213.98V55Z" fill="#1A1921" />
    <path d="M133.696 72.65C134.104 72.65 134.308 72.86 134.308 73.28C134.308 73.712 134.098 73.928 133.678 73.928L128.224 73.856C127.852 73.844 127.666 73.628 127.666 73.208C127.666 72.992 127.72 72.836 127.828 72.74C127.948 72.632 128.092 72.578 128.26 72.578L130.312 72.614C130.528 69.158 130.636 65.798 130.636 62.534C130.096 62.546 129.394 62.582 128.53 62.642L128.044 62.678C127.924 62.678 127.816 62.618 127.72 62.498C127.624 62.378 127.576 62.222 127.576 62.03C127.576 61.682 127.768 61.472 128.152 61.4C128.368 61.364 128.83 61.328 129.538 61.292C130.246 61.256 130.936 61.238 131.608 61.238C132.616 61.238 133.33 61.274 133.75 61.346C133.93 61.382 134.068 61.442 134.164 61.526C134.26 61.598 134.308 61.742 134.308 61.958C134.308 62.162 134.248 62.324 134.128 62.444C134.02 62.552 133.87 62.6 133.678 62.588C133.21 62.552 132.658 62.528 132.022 62.516C132.022 64.46 131.998 66.218 131.95 67.79C131.902 69.35 131.812 70.964 131.68 72.632L133.696 72.65Z" fill="#1A1921" fill-opacity="0.5" />
    <path d="M146.017 61.166C146.257 61.166 146.437 61.232 146.557 61.364C146.677 61.484 146.737 61.658 146.737 61.886L146.719 68.456C146.719 69.908 146.671 71.018 146.575 71.786C146.491 72.554 146.359 73.082 146.179 73.37C146.011 73.646 145.777 73.784 145.477 73.784C145.117 73.784 144.739 73.598 144.343 73.226C143.947 72.842 143.503 72.29 143.011 71.57C142.519 70.838 141.805 69.734 140.869 68.258C139.993 66.866 139.327 65.828 138.871 65.144C138.427 64.448 138.043 63.878 137.719 63.434C137.719 64.25 137.725 64.904 137.737 65.396L137.755 67.79L137.773 73.244C137.773 73.4 137.707 73.538 137.575 73.658C137.443 73.766 137.275 73.82 137.071 73.82C136.879 73.82 136.711 73.766 136.567 73.658C136.435 73.538 136.369 73.4 136.369 73.244V67.772C136.369 66.632 136.363 65.744 136.351 65.108L136.333 62.426C136.333 62.042 136.393 61.76 136.513 61.58C136.633 61.388 136.843 61.292 137.143 61.292C137.467 61.292 137.791 61.436 138.115 61.724C138.439 62.012 138.769 62.408 139.105 62.912C139.453 63.416 139.957 64.196 140.617 65.252C140.521 65.084 140.839 65.6 141.571 66.8C143.059 69.176 144.247 70.934 145.135 72.074C145.255 71.198 145.315 69.986 145.315 68.438V61.796C145.315 61.604 145.375 61.454 145.495 61.346C145.627 61.226 145.801 61.166 146.017 61.166Z" fill="#1A1921" fill-opacity="0.5" />
    <path d="M153.438 73.982C152.562 73.982 151.812 73.808 151.188 73.46C150.564 73.1 150.09 72.626 149.766 72.038C149.454 71.438 149.298 70.79 149.298 70.094C149.298 69.878 149.346 69.71 149.442 69.59C149.55 69.47 149.73 69.41 149.982 69.41C150.45 69.41 150.684 69.608 150.684 70.004C150.684 70.568 150.81 71.054 151.062 71.462C151.314 71.87 151.65 72.182 152.07 72.398C152.49 72.614 152.946 72.722 153.438 72.722C154.158 72.722 154.746 72.554 155.202 72.218C155.67 71.882 155.904 71.396 155.904 70.76C155.904 70.292 155.778 69.908 155.526 69.608C155.274 69.296 154.944 69.05 154.536 68.87C154.128 68.678 153.606 68.486 152.97 68.294C152.286 68.102 151.704 67.904 151.224 67.7C150.744 67.484 150.294 67.142 149.874 66.674C149.466 66.206 149.262 65.588 149.262 64.82C149.262 64.136 149.442 63.524 149.802 62.984C150.162 62.444 150.642 62.024 151.242 61.724C151.842 61.424 152.502 61.274 153.222 61.274C153.966 61.274 154.638 61.436 155.238 61.76C155.85 62.084 156.324 62.51 156.66 63.038C157.008 63.566 157.182 64.124 157.182 64.712C157.182 64.976 157.128 65.162 157.02 65.27C156.924 65.378 156.756 65.432 156.516 65.432C156.24 65.432 156.054 65.378 155.958 65.27C155.862 65.162 155.814 65.012 155.814 64.82C155.814 64.184 155.574 63.644 155.094 63.2C154.614 62.756 153.99 62.534 153.222 62.534C152.454 62.534 151.83 62.756 151.35 63.2C150.882 63.632 150.648 64.178 150.648 64.838C150.648 65.282 150.774 65.648 151.026 65.936C151.29 66.212 151.614 66.428 151.998 66.584C152.394 66.74 152.952 66.926 153.672 67.142C154.284 67.334 154.836 67.55 155.328 67.79C155.832 68.018 156.282 68.378 156.678 68.87C157.074 69.362 157.272 69.986 157.272 70.742C157.272 71.39 157.104 71.96 156.768 72.452C156.444 72.944 155.988 73.322 155.4 73.586C154.824 73.85 154.17 73.982 153.438 73.982Z" fill="#1A1921" fill-opacity="0.5" />
    <path d="M165.02 72.65C165.428 72.65 165.632 72.86 165.632 73.28C165.632 73.712 165.422 73.928 165.002 73.928L159.548 73.856C159.176 73.844 158.99 73.628 158.99 73.208C158.99 72.992 159.044 72.836 159.152 72.74C159.272 72.632 159.416 72.578 159.584 72.578L161.636 72.614C161.852 69.158 161.96 65.798 161.96 62.534C161.42 62.546 160.718 62.582 159.854 62.642L159.368 62.678C159.248 62.678 159.14 62.618 159.044 62.498C158.948 62.378 158.9 62.222 158.9 62.03C158.9 61.682 159.092 61.472 159.476 61.4C159.692 61.364 160.154 61.328 160.862 61.292C161.57 61.256 162.26 61.238 162.932 61.238C163.94 61.238 164.654 61.274 165.074 61.346C165.254 61.382 165.392 61.442 165.488 61.526C165.584 61.598 165.632 61.742 165.632 61.958C165.632 62.162 165.572 62.324 165.452 62.444C165.344 62.552 165.194 62.6 165.002 62.588C164.534 62.552 163.982 62.528 163.346 62.516C163.346 64.46 163.322 66.218 163.274 67.79C163.226 69.35 163.136 70.964 163.004 72.632L165.02 72.65Z" fill="#1A1921" fill-opacity="0.5" />
    <path d="M178.223 67.61C178.691 67.61 178.925 67.814 178.925 68.222C178.925 68.426 178.865 68.588 178.745 68.708C178.625 68.816 178.463 68.864 178.259 68.852L177.791 68.834C177.731 70.502 177.317 71.78 176.549 72.668C175.781 73.544 174.647 73.982 173.147 73.982C171.935 73.982 170.861 73.7 169.925 73.136C169.001 72.572 168.287 71.816 167.783 70.868C167.291 69.92 167.045 68.882 167.045 67.754C167.045 66.626 167.297 65.594 167.801 64.658C168.305 63.71 169.007 62.96 169.907 62.408C170.807 61.856 171.821 61.58 172.949 61.58C173.801 61.58 174.533 61.73 175.145 62.03C175.769 62.318 176.273 62.684 176.657 63.128V62.768C176.657 62.564 176.723 62.408 176.855 62.3C176.987 62.18 177.161 62.12 177.377 62.12C177.581 62.12 177.743 62.168 177.863 62.264C177.995 62.36 178.061 62.474 178.061 62.606C178.061 63.458 177.995 64.022 177.863 64.298C177.743 64.562 177.509 64.694 177.161 64.694C177.029 64.694 176.909 64.67 176.801 64.622C176.693 64.562 176.555 64.454 176.387 64.298C176.027 63.974 175.715 63.716 175.451 63.524C175.187 63.332 174.869 63.176 174.497 63.056C174.137 62.924 173.705 62.858 173.201 62.858C172.253 62.858 171.419 63.08 170.699 63.524C169.979 63.968 169.421 64.568 169.025 65.324C168.629 66.08 168.431 66.908 168.431 67.808C168.431 68.708 168.629 69.536 169.025 70.292C169.421 71.036 169.973 71.624 170.681 72.056C171.401 72.488 172.217 72.704 173.129 72.704C174.221 72.704 175.031 72.38 175.559 71.732C176.099 71.084 176.393 70.124 176.441 68.852L173.903 68.798C173.459 68.786 173.237 68.576 173.237 68.168C173.237 67.952 173.303 67.79 173.435 67.682C173.579 67.562 173.747 67.508 173.939 67.52L178.223 67.61Z" fill="#1A1921" fill-opacity="0.5" />
    <path d="M190.683 67.682C191.223 67.682 191.493 67.898 191.493 68.33C191.493 68.75 191.223 68.96 190.683 68.96H190.395L190.521 73.334C190.533 73.538 190.479 73.706 190.359 73.838C190.239 73.958 190.071 74.018 189.855 74.018C189.627 74.018 189.453 73.964 189.333 73.856C189.213 73.736 189.147 73.574 189.135 73.37L189.009 68.924L183.069 68.834L182.691 73.604C182.655 73.94 182.427 74.108 182.007 74.108C181.503 74.108 181.269 73.904 181.305 73.496L181.683 68.798H181.341C181.137 68.798 180.963 68.744 180.819 68.636C180.675 68.528 180.603 68.372 180.603 68.168C180.603 67.964 180.675 67.808 180.819 67.7C180.963 67.592 181.149 67.538 181.377 67.538H181.791L182.259 61.634C182.271 61.418 182.343 61.262 182.475 61.166C182.619 61.058 182.787 61.004 182.979 61.004C183.219 61.004 183.393 61.076 183.501 61.22C183.609 61.352 183.657 61.52 183.645 61.724L183.177 67.574L188.973 67.664L188.793 61.688C188.793 61.472 188.853 61.304 188.973 61.184C189.093 61.064 189.261 61.004 189.477 61.004C189.693 61.004 189.861 61.064 189.981 61.184C190.113 61.304 190.179 61.454 190.179 61.634L190.359 67.682H190.683Z" fill="#1A1921" fill-opacity="0.5" />
    <path d="M201.157 61.598C201.577 61.646 201.787 61.862 201.787 62.246C201.787 62.462 201.727 62.63 201.607 62.75C201.487 62.858 201.319 62.906 201.103 62.894C200.011 62.81 199.033 62.762 198.169 62.75C198.073 63.866 197.995 65.48 197.935 67.592L197.917 67.97C197.833 70.418 197.791 72.236 197.791 73.424C197.791 73.7 197.731 73.892 197.611 74C197.503 74.12 197.317 74.18 197.053 74.18C196.777 74.18 196.585 74.114 196.477 73.982C196.369 73.85 196.315 73.61 196.315 73.262C196.315 72.89 196.333 72.23 196.369 71.282C196.405 70.322 196.435 69.572 196.459 69.032L196.513 67.988L196.765 62.75C195.841 62.774 194.833 62.84 193.741 62.948C193.525 62.972 193.351 62.93 193.219 62.822C193.099 62.702 193.039 62.528 193.039 62.3C193.039 61.928 193.219 61.724 193.579 61.688C194.899 61.544 196.231 61.472 197.575 61.472C199.243 61.472 200.437 61.514 201.157 61.598Z" fill="#1A1921" fill-opacity="0.5" />
    <path d="M207.666 73.982C206.79 73.982 206.04 73.808 205.416 73.46C204.792 73.1 204.318 72.626 203.994 72.038C203.682 71.438 203.526 70.79 203.526 70.094C203.526 69.878 203.574 69.71 203.67 69.59C203.778 69.47 203.958 69.41 204.21 69.41C204.678 69.41 204.912 69.608 204.912 70.004C204.912 70.568 205.038 71.054 205.29 71.462C205.542 71.87 205.878 72.182 206.298 72.398C206.718 72.614 207.174 72.722 207.666 72.722C208.386 72.722 208.974 72.554 209.43 72.218C209.898 71.882 210.132 71.396 210.132 70.76C210.132 70.292 210.006 69.908 209.754 69.608C209.502 69.296 209.172 69.05 208.764 68.87C208.356 68.678 207.834 68.486 207.198 68.294C206.514 68.102 205.932 67.904 205.452 67.7C204.972 67.484 204.522 67.142 204.102 66.674C203.694 66.206 203.49 65.588 203.49 64.82C203.49 64.136 203.67 63.524 204.03 62.984C204.39 62.444 204.87 62.024 205.47 61.724C206.07 61.424 206.73 61.274 207.45 61.274C208.194 61.274 208.866 61.436 209.466 61.76C210.078 62.084 210.552 62.51 210.888 63.038C211.236 63.566 211.41 64.124 211.41 64.712C211.41 64.976 211.356 65.162 211.248 65.27C211.152 65.378 210.984 65.432 210.744 65.432C210.468 65.432 210.282 65.378 210.186 65.27C210.09 65.162 210.042 65.012 210.042 64.82C210.042 64.184 209.802 63.644 209.322 63.2C208.842 62.756 208.218 62.534 207.45 62.534C206.682 62.534 206.058 62.756 205.578 63.2C205.11 63.632 204.876 64.178 204.876 64.838C204.876 65.282 205.002 65.648 205.254 65.936C205.518 66.212 205.842 66.428 206.226 66.584C206.622 66.74 207.18 66.926 207.9 67.142C208.512 67.334 209.064 67.55 209.556 67.79C210.06 68.018 210.51 68.378 210.906 68.87C211.302 69.362 211.5 69.986 211.5 70.742C211.5 71.39 211.332 71.96 210.996 72.452C210.672 72.944 210.216 73.322 209.628 73.586C209.052 73.85 208.398 73.982 207.666 73.982Z" fill="#1A1921" fill-opacity="0.5" />
    <defs>
        <linearGradient id="paint0_linear_14_2" x1="107.23" y1="18.6906" x2="107.23" y2="74.4972" gradientUnits="userSpaceOnUse">
            <stop stop-color="#D8F3FE" />
            <stop offset="1" stop-color="#E1A1FF" />
        </linearGradient>
    </defs>
</svg>